M48
;Layer_Color=9474304
;FILE_FORMAT=4:2
METRIC,LZ
;TYPE=PLATED
T1F00S00C0.80
T2F00S00C0.90
T3F00S00C1.20
T4F00S00C3.10
T5F00S00C4.10
%
T01
X008076Y007506
X00833
X008584
X008838
X009092
X009346
X0096
X007822
X007568
X007314
X00706
X006806
X006552
X006298
X006044
Y00903
X006298
X006552
X006806
X00706
X007314
X007568
X007822
X008076
X00833
X008584
X008838
X009092
X009346
X0096
T02
X01014Y00328
X01039
Y003534
X01014
Y003788
X01039
Y004042
X01014
X00566Y00959
Y01139
X00969
Y00959
T03
X01033Y010302
Y01081
T04
X00594Y00186
X01037Y00187
X00593Y01175
X01036Y01176
T05
X006102Y002632
X010098
X0101Y00663
X0061
M30
