G04*
G04 #@! TF.GenerationSoftware,Altium Limited,Altium Designer,23.4.1 (23)*
G04*
G04 Layer_Physical_Order=2*
G04 Layer_Color=16711680*
%FSLAX44Y44*%
%MOMM*%
G71*
G04*
G04 #@! TF.SameCoordinates,CD9FDB66-F090-44B4-BA50-0B1389574BE9*
G04*
G04*
G04 #@! TF.FilePolarity,Positive*
G04*
G01*
G75*
%ADD21C,6.0000*%
%ADD22O,2.0320X1.6510*%
%ADD23R,2.0320X1.6510*%
%ADD24R,1.7000X1.7000*%
%ADD25C,1.7000*%
%ADD26R,1.8000X1.8000*%
%ADD27C,1.8000*%
%ADD28C,2.5400*%
%ADD29C,3.0000*%
%ADD30C,1.5000*%
D21*
X1494000Y752000D02*
D03*
X582000Y757000D02*
D03*
X594000Y186000D02*
D03*
X1010000Y663000D02*
D03*
X1009800Y263200D02*
D03*
X610200D02*
D03*
X610000Y663000D02*
D03*
X1037000Y187000D02*
D03*
D22*
X1267400Y427400D02*
D03*
Y376600D02*
D03*
Y402000D02*
D03*
Y478200D02*
D03*
Y452800D02*
D03*
Y325800D02*
D03*
Y351200D02*
D03*
X1115000Y249600D02*
D03*
X1267400Y275000D02*
D03*
Y249600D02*
D03*
Y300400D02*
D03*
X1115000Y275000D02*
D03*
Y325800D02*
D03*
Y300400D02*
D03*
Y351200D02*
D03*
Y376600D02*
D03*
Y402000D02*
D03*
Y554400D02*
D03*
Y529000D02*
D03*
Y503600D02*
D03*
Y478200D02*
D03*
Y452800D02*
D03*
Y427400D02*
D03*
Y579800D02*
D03*
X1267400D02*
D03*
Y605200D02*
D03*
Y529000D02*
D03*
Y503600D02*
D03*
Y554400D02*
D03*
D23*
X1115000Y605200D02*
D03*
D24*
X1014000Y404200D02*
D03*
X1039000D02*
D03*
D25*
X1014000Y378800D02*
D03*
Y353400D02*
D03*
Y328000D02*
D03*
X1039000Y378800D02*
D03*
Y353400D02*
D03*
Y328000D02*
D03*
D26*
X1318000Y677000D02*
D03*
Y274000D02*
D03*
D27*
X1498000Y677000D02*
D03*
Y274000D02*
D03*
X1165000Y364000D02*
D03*
X956000Y327000D02*
D03*
X955000Y354000D02*
D03*
X1076000Y479000D02*
D03*
D28*
X1431800Y203000D02*
D03*
X1381000D02*
D03*
D29*
X1318000Y226211D02*
Y274000D01*
X1341211Y203000D02*
X1381000D01*
X1318000Y226211D02*
X1341211Y203000D01*
D30*
X1290140Y690140D02*
X1301000Y701000D01*
X1290140Y590482D02*
Y690140D01*
X1279747Y580089D02*
X1290140Y590482D01*
X1267689Y580089D02*
X1279747D01*
X1301000Y701000D02*
X1474000D01*
X1120970Y529000D02*
X1235000Y414970D01*
X1117314Y529000D02*
X1120970D01*
X959600Y353400D02*
X1014000D01*
X959000Y354000D02*
X959600Y353400D01*
X961000Y328000D02*
X1014000D01*
X961000Y328000D02*
X961000Y328000D01*
X1126289Y401711D02*
X1158000Y370000D01*
X1115000Y402000D02*
X1115289Y401711D01*
X1126289D01*
X1115000Y427400D02*
X1186213D01*
X1195000Y418613D01*
X1127713Y222713D02*
X1195000Y290000D01*
Y418613D01*
X1235000Y233000D02*
Y414970D01*
Y233000D02*
X1292580Y175420D01*
X1014000Y404200D02*
Y482600D01*
X1006000Y490600D02*
X1014000Y482600D01*
X1006000Y490600D02*
Y569000D01*
X1083115Y646115D01*
X1039000Y404200D02*
Y565406D01*
X1083115Y646115D02*
X1146369D01*
X1162484Y630000D01*
X1039000Y565406D02*
X1099629Y626035D01*
X1138051D01*
X1234798Y529289D01*
X1162484Y630000D02*
X1210000D01*
X1267111Y529289D02*
X1267400Y529000D01*
X1234798Y529289D02*
X1267111D01*
X1079800Y478200D02*
X1115000D01*
X1079000Y479000D02*
X1079800Y478200D01*
X1267400Y579800D02*
X1267689Y580089D01*
X1267111D02*
X1267400Y579800D01*
X1259911Y580089D02*
X1267111D01*
X1210000Y630000D02*
X1259911Y580089D01*
X1083000Y376000D02*
Y444013D01*
X1060400Y353400D02*
X1083000Y376000D01*
X1039541Y353400D02*
X1060400D01*
X1083000Y444013D02*
X1091787Y452800D01*
X1115000D01*
X1404220Y175420D02*
X1431800Y203000D01*
X1073691Y235309D02*
Y293309D01*
X1086287Y222713D02*
X1127713D01*
X1039000Y328000D02*
X1073691Y293309D01*
Y235309D02*
X1086287Y222713D01*
X1433790Y204990D02*
Y209790D01*
X1318000Y573630D02*
Y677000D01*
X1292580Y175420D02*
X1404220D01*
X1474000Y701000D02*
X1498000Y677000D01*
X1267689Y529289D02*
X1273659D01*
X1431800Y203000D02*
X1433790Y204990D01*
X1267400Y529000D02*
X1267689Y529289D01*
X1273659D02*
X1318000Y573630D01*
X1433790Y209790D02*
X1498000Y274000D01*
Y677000D01*
M02*
