G04*
G04 #@! TF.GenerationSoftware,Altium Limited,Altium Designer,23.4.1 (23)*
G04*
G04 Layer_Physical_Order=2*
G04 Layer_Color=16711680*
%FSLAX44Y44*%
%MOMM*%
G71*
G04*
G04 #@! TF.SameCoordinates,A3FC0653-CE41-4FAB-A618-F1E524C4D78C*
G04*
G04*
G04 #@! TF.FilePolarity,Positive*
G04*
G01*
G75*
%ADD10C,1.5000*%
%ADD11C,1.2700*%
%ADD12C,3.0000*%
%ADD13C,6.0000*%
%ADD14R,1.7000X1.7000*%
%ADD15C,1.7000*%
%ADD16O,1.6510X2.0320*%
%ADD17R,1.6510X2.0320*%
%ADD18R,1.8000X1.8000*%
%ADD19C,1.8000*%
%ADD20C,2.5400*%
D10*
X629800Y903000D02*
Y1076012D01*
X566812Y1139000D02*
X629800Y1076012D01*
X566000Y904000D02*
X603000Y867000D01*
X705000D01*
X566000Y904000D02*
Y959000D01*
X1006417Y326583D02*
X1014617D01*
X680600Y652400D02*
Y750600D01*
Y652400D02*
X1006417Y326583D01*
X1044861Y330520D02*
X1048732D01*
X1079930Y361718D02*
Y810070D01*
X1040541Y326200D02*
X1044861Y330520D01*
X1048732D02*
X1079930Y361718D01*
X1023000Y867000D02*
X1079930Y810070D01*
X1040000Y326200D02*
X1040541D01*
X680889Y891111D02*
X701000Y871000D01*
X705000Y867000D01*
X1014617Y326583D02*
X1015000Y326200D01*
X680600Y903000D02*
X680889Y902711D01*
Y891111D02*
Y902711D01*
X705000Y867000D02*
X1023000D01*
D11*
X795000Y782000D02*
X979000D01*
X1061000Y384440D02*
Y700000D01*
X979000Y782000D02*
X1061000Y700000D01*
X934600Y627368D02*
Y750600D01*
Y627368D02*
X1040000Y521968D01*
Y402400D02*
Y521968D01*
X909200Y508200D02*
Y750600D01*
Y508200D02*
X1015000Y402400D01*
X1014177Y377823D02*
X1015000Y377000D01*
X1006413Y377823D02*
X1014177D01*
X807600Y576636D02*
X1006413Y377823D01*
X807600Y576636D02*
Y750600D01*
X1040000Y377000D02*
X1040823Y377823D01*
X1054383D01*
X1061000Y384440D01*
X782200Y750600D02*
X782929Y751329D01*
Y769929D01*
X795000Y782000D01*
X969000Y959000D02*
X971650Y961650D01*
D12*
X969000Y1139000D02*
X1027000Y1081000D01*
X1033000D01*
X969000Y966200D02*
X1033000Y1030200D01*
X969000Y959000D02*
Y966200D01*
D13*
X594000Y186000D02*
D03*
X593000Y1175000D02*
D03*
X1036000Y1176000D02*
D03*
X1037000Y187000D02*
D03*
X1010000Y663000D02*
D03*
X1009800Y263200D02*
D03*
X610200D02*
D03*
X610000Y663000D02*
D03*
D14*
X1014000Y404200D02*
D03*
X1039000D02*
D03*
D15*
X1014000Y378800D02*
D03*
Y353400D02*
D03*
Y328000D02*
D03*
X1039000Y378800D02*
D03*
Y353400D02*
D03*
Y328000D02*
D03*
D16*
X655200Y903000D02*
D03*
X706000D02*
D03*
X680600D02*
D03*
X604400D02*
D03*
X629800D02*
D03*
Y750600D02*
D03*
X782200D02*
D03*
X756800D02*
D03*
X731400D02*
D03*
X706000D02*
D03*
X680600D02*
D03*
X655200D02*
D03*
X807600D02*
D03*
X833000D02*
D03*
X858400D02*
D03*
X909200D02*
D03*
X883800D02*
D03*
X934600D02*
D03*
X909200Y903000D02*
D03*
X960000D02*
D03*
X934600D02*
D03*
X960000Y750600D02*
D03*
X858400Y903000D02*
D03*
X883800D02*
D03*
X756800D02*
D03*
X731400D02*
D03*
X807600D02*
D03*
X833000D02*
D03*
X782200D02*
D03*
D17*
X604400Y750600D02*
D03*
D18*
X566000Y959000D02*
D03*
X969000D02*
D03*
D19*
X566000Y1139000D02*
D03*
X969000D02*
D03*
D20*
X1033000Y1081000D02*
D03*
Y1030200D02*
D03*
M02*
