G04*
G04 #@! TF.GenerationSoftware,Altium Limited,Altium Designer,23.4.1 (23)*
G04*
G04 Layer_Color=8388736*
%FSLAX44Y44*%
%MOMM*%
G71*
G04*
G04 #@! TF.SameCoordinates,CD9FDB66-F090-44B4-BA50-0B1389574BE9*
G04*
G04*
G04 #@! TF.FilePolarity,Negative*
G04*
G01*
G75*
%ADD13C,6.2032*%
%ADD14O,2.2352X1.8542*%
%ADD15R,2.2352X1.8542*%
%ADD16R,1.9032X1.9032*%
%ADD17C,1.9032*%
%ADD18R,2.0032X2.0032*%
%ADD19C,2.0032*%
%ADD20C,2.7432*%
D13*
X1494000Y752000D02*
D03*
X582000Y757000D02*
D03*
X594000Y186000D02*
D03*
X1010000Y663000D02*
D03*
X1009800Y263200D02*
D03*
X610200D02*
D03*
X610000Y663000D02*
D03*
X1037000Y187000D02*
D03*
D14*
X1267400Y427400D02*
D03*
Y376600D02*
D03*
Y402000D02*
D03*
Y478200D02*
D03*
Y452800D02*
D03*
Y325800D02*
D03*
Y351200D02*
D03*
X1115000Y249600D02*
D03*
X1267400Y275000D02*
D03*
Y249600D02*
D03*
Y300400D02*
D03*
X1115000Y275000D02*
D03*
Y325800D02*
D03*
Y300400D02*
D03*
Y351200D02*
D03*
Y376600D02*
D03*
Y402000D02*
D03*
Y554400D02*
D03*
Y529000D02*
D03*
Y503600D02*
D03*
Y478200D02*
D03*
Y452800D02*
D03*
Y427400D02*
D03*
Y579800D02*
D03*
X1267400D02*
D03*
Y605200D02*
D03*
Y529000D02*
D03*
Y503600D02*
D03*
Y554400D02*
D03*
D15*
X1115000Y605200D02*
D03*
D16*
X1014000Y404200D02*
D03*
X1039000D02*
D03*
D17*
X1014000Y378800D02*
D03*
Y353400D02*
D03*
Y328000D02*
D03*
X1039000Y378800D02*
D03*
Y353400D02*
D03*
Y328000D02*
D03*
D18*
X1318000Y677000D02*
D03*
Y274000D02*
D03*
D19*
X1498000Y677000D02*
D03*
Y274000D02*
D03*
X1165000Y364000D02*
D03*
X956000Y327000D02*
D03*
X955000Y354000D02*
D03*
X1076000Y479000D02*
D03*
D20*
X1431800Y203000D02*
D03*
X1381000D02*
D03*
M02*
