M48
;Layer_Color=9474304
;FILE_FORMAT=4:2
METRIC,LZ
;TYPE=PLATED
T1F00S00C0.80
T2F00S00C0.90
T3F00S00C1.20
T4F00S00C3.10
T5F00S00C3.10
T6F00S00C4.10
%
T01
X01115Y002496
Y00275
Y003004
Y003258
Y003512
Y003766
X012674
Y003512
Y003258
Y003004
Y00275
Y002496
Y00402
Y004274
Y004528
Y004782
Y005036
Y00529
Y005544
Y005798
Y006052
X01115
Y005798
Y005544
Y00529
Y005036
Y004782
Y004528
Y004274
Y00402
T02
X00956Y00327
X00955Y00354
X01014Y003534
X01039
Y003788
X01014
Y00328
X01039
X01165Y00364
X01318Y00274
X01498
Y00677
X01318
X01076Y00479
X01039Y004042
X01014
T03
X01381Y00203
X014318
T04
X00594Y00186
X01037Y00187
T05
X01494Y00752
X00582Y00757
T06
X006102Y002632
X010098
X0101Y00663
X0061
M30
