G04*
G04 #@! TF.GenerationSoftware,Altium Limited,Altium Designer,23.4.1 (23)*
G04*
G04 Layer_Color=65535*
%FSLAX44Y44*%
%MOMM*%
G71*
G04*
G04 #@! TF.SameCoordinates,CD9FDB66-F090-44B4-BA50-0B1389574BE9*
G04*
G04*
G04 #@! TF.FilePolarity,Positive*
G04*
G01*
G75*
%ADD10C,0.2540*%
%ADD11C,0.2000*%
%ADD12C,0.2032*%
D10*
X1095950Y211500D02*
X1153100D01*
X1229300D02*
X1286450D01*
X1153100Y275000D02*
X1229300D01*
X1153100Y198800D02*
Y275000D01*
Y198800D02*
X1229300D01*
Y275000D01*
X559000Y215000D02*
X1059000D01*
Y715000D01*
X559000D02*
X1059000D01*
X559000Y215000D02*
Y715000D01*
X1302400Y260000D02*
X1512400D01*
Y690000D01*
X1302400D02*
X1512400D01*
X1302400Y260000D02*
Y690000D01*
X1004369Y281880D02*
X1019604D01*
X1011986D01*
Y292037D01*
X1004369D01*
X1019604D01*
X1004369Y307272D02*
X1006908Y302194D01*
X1011986Y297115D01*
X1017065D01*
X1019604Y299654D01*
Y304733D01*
X1017065Y307272D01*
X1014526D01*
X1011986Y304733D01*
Y297115D01*
X1029549Y281880D02*
X1044784D01*
X1037167D01*
Y292037D01*
X1029549D01*
X1044784D01*
X1029549Y307272D02*
Y297115D01*
X1037167D01*
X1034627Y302194D01*
Y304733D01*
X1037167Y307272D01*
X1042245D01*
X1044784Y304733D01*
Y299654D01*
X1042245Y297115D01*
X1429175Y448460D02*
X1413940D01*
Y440842D01*
X1416479Y438303D01*
X1419018D01*
X1421557Y440842D01*
Y448460D01*
Y440842D01*
X1424097Y438303D01*
X1426636D01*
X1429175Y440842D01*
Y448460D01*
X1424097Y433225D02*
X1416479D01*
X1413940Y430686D01*
Y423068D01*
X1424097D01*
Y407833D02*
Y415451D01*
X1421557Y417990D01*
X1416479D01*
X1413940Y415451D01*
Y407833D01*
Y402755D02*
X1429175D01*
X1419018D02*
X1424097Y395137D01*
X1419018Y402755D02*
X1413940Y395137D01*
X1369819Y272791D02*
X1364740D01*
X1367280D01*
Y260095D01*
X1364740Y257556D01*
X1362201D01*
X1359662Y260095D01*
X1385054Y257556D02*
X1374897D01*
X1385054Y267713D01*
Y270252D01*
X1382515Y272791D01*
X1377436D01*
X1374897Y270252D01*
D11*
X1095950Y211500D02*
Y643300D01*
X1286450Y211500D02*
Y643300D01*
X1095950D02*
X1286450D01*
X1001300Y315300D02*
X1026700D01*
X1001300D02*
Y416900D01*
X1026700Y315300D02*
Y416900D01*
X1001300D02*
X1026700D01*
X1026300Y315300D02*
X1051700D01*
X1026300D02*
Y416900D01*
X1051700Y315300D02*
Y416900D01*
X1026300D02*
X1051700D01*
X1356100Y664300D02*
Y689700D01*
X1305300Y664300D02*
X1356100D01*
X1305300Y689700D02*
X1356100D01*
X1305300Y664300D02*
Y689700D01*
X1356100Y261300D02*
Y286700D01*
X1305300Y261300D02*
X1356100D01*
X1305300Y286700D02*
X1356100D01*
X1305300Y261300D02*
Y286700D01*
D12*
X1358140Y228400D02*
X1454660D01*
X1444500D02*
Y236867D01*
X1414312Y248837D02*
X1419100Y236867D01*
Y228400D02*
Y236867D01*
X1393700D02*
X1398488Y248837D01*
X1393700Y228400D02*
Y236867D01*
X1368300Y228400D02*
Y236867D01*
X1358140Y223320D02*
X1454660D01*
X1358140Y182680D02*
X1454660D01*
X1358140Y157280D02*
X1454660D01*
Y248720D01*
X1358140D02*
X1454660D01*
X1358140Y157280D02*
Y248720D01*
X1363512Y248837D02*
X1368300Y236867D01*
X1444500D02*
X1449288Y248837D01*
X1358140Y177600D02*
X1454660D01*
M02*
